# xmcd
#
# Track frame offsets:
#        300
#        5883
#        34731
#        59263
#        90963
#        120435
#        149224
#        180650
#        204453
#        244958
#
# Disc length: 3590 seconds
#
# Revision: 0
# Processed by: cddbd v1.5.1PL0 Copyright (c) Steve Scherf et al.
# Submitted via: ExactAudioCopy v0.95a4
#
DISCID=8d0e020a
DTITLE=Eric Sneo - Slave To The Beat
DYEAR=2005
DGENRE=Club
TTITLE0=Intro
TTITLE1=Slave To The Beat
TTITLE2=Cbicken Town
TTITLE3=Snare Attack
TTITLE4=Burning Out
TTITLE5=Pulses
TTITLE6=Technology
TTITLE7=Morgasm
TTITLE8=The Bonski Beat
TTITLE9=Something About Me
EXTD=
EXTT0=
EXTT1=
EXTT2=
EXTT3=
EXTT4=
EXTT5=
EXTT6=
EXTT7=
EXTT8=
EXTT9=
PLAYORDER=
